<?xml version="1.0" encoding="UTF-8"?>
<svg version="1.1" xmlns="http://www.w3.org/2000/svg" width="98" height="80">
<path d="M0 0 C32.34 0 64.68 0 98 0 C98 26.4 98 52.8 98 80 C65.66 80 33.32 80 0 80 C0 53.6 0 27.2 0 0 Z " fill="#FEFEFE" transform="translate(0,0)"/>
<path d="M0 0 C3.98595706 1.25278917 6.42038669 3.26412105 9.25390625 6.21020508 C9.75535156 6.68006836 10.25679687 7.14993164 10.7734375 7.6340332 C12.19140625 9.06567383 12.19140625 9.06567383 14.25390625 12.02270508 C14.06640625 15.38598633 14.06640625 15.38598633 13.25390625 18.02270508 C8.83879851 17.5355741 6.9494398 16.17217311 3.94140625 12.96020508 C3.24402344 12.22672852 2.54664063 11.49325195 1.828125 10.73754883 C1.30863281 10.17165039 0.78914063 9.60575195 0.25390625 9.02270508 C-3.3137366 10.53646589 -5.58315662 12.62783637 -8.29296875 15.37426758 C-9.13730469 16.22504883 -9.98164062 17.07583008 -10.8515625 17.95239258 C-12.16060547 19.28657227 -12.16060547 19.28657227 -13.49609375 20.64770508 C-14.38425781 21.54489258 -15.27242187 22.44208008 -16.1875 23.36645508 C-18.37826344 25.58077512 -20.56422138 27.79962943 -22.74609375 30.02270508 C-21.23233294 33.59034793 -19.14096246 35.85976795 -16.39453125 38.56958008 C-15.54375 39.41391602 -14.69296875 40.25825195 -13.81640625 41.12817383 C-12.48222656 42.4372168 -12.48222656 42.4372168 -11.12109375 43.77270508 C-10.22390625 44.66086914 -9.32671875 45.5490332 -8.40234375 46.46411133 C-6.18802371 48.65487477 -3.9691694 50.84083271 -1.74609375 53.02270508 C1.46515637 51.5114066 3.34365969 50.00827449 5.69140625 47.33520508 C7.50390625 45.44458008 7.50390625 45.44458008 9.25390625 44.02270508 C12.19140625 44.08520508 12.19140625 44.08520508 14.25390625 45.02270508 C14.609375 47.13208008 14.609375 47.13208008 14.25390625 50.02270508 C12.4152534 52.3334841 10.67944868 54.25131865 8.56640625 56.27270508 C8.03595703 56.81411133 7.50550781 57.35551758 6.95898438 57.91333008 C4.69303925 60.13757069 2.89876994 61.72763676 -0.01586914 63.0612793 C-3.80296534 63.00777297 -5.070588 61.42363782 -7.70843506 58.84274292 C-8.31383118 58.21892731 -8.91922729 57.59511169 -9.54296875 56.95239258 C-10.17720764 56.3191507 -10.81144653 55.68590881 -11.46490479 55.03347778 C-12.80332959 53.69037115 -14.13436988 52.33987129 -15.45849609 50.98266602 C-17.48506704 48.9089881 -19.53687405 46.86315407 -21.59375 44.81958008 C-22.89091384 43.51125969 -24.18653966 42.20141223 -25.48046875 40.88989258 C-26.09396179 40.27822235 -26.70745483 39.66655212 -27.33953857 39.03634644 C-29.66175153 36.63569322 -31.49842519 34.51154973 -33.01269531 31.52270508 C-32.56326894 27.30830395 -29.66517035 25.04684105 -26.74609375 22.15551758 C-26.11759521 21.51653534 -25.48909668 20.8775531 -24.84155273 20.21920776 C-23.50725819 18.87206442 -22.16513619 17.53263588 -20.81591797 16.20043945 C-18.75666986 14.15819387 -16.73743994 12.08151891 -14.71875 9.99926758 C-13.41762884 8.69492166 -12.11431176 7.3927618 -10.80859375 6.09301758 C-10.20724609 5.46920197 -9.60589844 4.84538635 -8.98632812 4.20266724 C-5.78380425 1.10315272 -4.61583077 0.02797656 0 0 Z " fill="#488CF7" transform="translate(52.74609375,8.977294921875)"/>
<path d="M0 0 C2.203125 1.671875 2.203125 1.671875 4.25 3.75 C5.27867188 4.76320313 5.27867188 4.76320313 6.328125 5.796875 C8.28999639 8.38214478 9.02977732 9.73938302 9 13 C7.0859375 15.67578125 7.0859375 15.67578125 4.375 18.3125 C3.49585937 19.19550781 2.61671875 20.07851563 1.7109375 20.98828125 C-1.23443822 23.17397072 -2.43309791 23.48288386 -6 23 C-6.875 20.875 -6.875 20.875 -7 18 C-5.2531134 15.70485976 -3.19996058 13.85561893 -1 12 C-2.09898852 9.43569346 -3.06785768 7.93613395 -5.125 6 C-7 4 -7 4 -7 0 C-4.23731131 -1.38134434 -2.92893808 -0.88388072 0 0 Z " fill="#E55F63" transform="translate(75,29)"/>
<path d="M0 0 C3.0099077 2.29014716 4.69783903 3.79135614 5.625 7.5 C4.68500224 11.25999106 3.11394311 12.7473603 0 15 C-3.54361243 15 -5.86591591 14.65850044 -8.9375 12.875 C-10.6712306 9.81547541 -10.42145216 7.43182475 -10 4 C-7.27238925 -0.09141613 -4.79563536 -0.88083098 0 0 Z " fill="#E55C61" transform="translate(55,33)"/>
<path d="M0 0 C1.12588014 0.95729916 2.2506715 1.91587895 3.375 2.875 C4.00148438 3.40867187 4.62796875 3.94234375 5.2734375 4.4921875 C6.55836651 5.61432007 7.79371975 6.79371975 9 8 C8.625 11.125 8.625 11.125 8 14 C3.65150403 13.50671512 1.77683592 12.23325003 -1.1875 9.0625 C-1.86167969 8.35222656 -2.53585938 7.64195313 -3.23046875 6.91015625 C-3.81441406 6.27980469 -4.39835937 5.64945313 -5 5 C-5.66 4.34 -6.32 3.68 -7 3 C-4.69 2.01 -2.38 1.02 0 0 Z " fill="#62A9EF" transform="translate(58,13)"/>
</svg>
